# 3ds Max Wavefront OBJ Exporter v0.97b - (c)2007 guruware
# File Created: 28.06.2017 02:54:24

#
# object low_poly_sphere
#

v  -0.3575 -0.3575 0.3575
v  -0.4124 -0.4124 0.2080
v  -0.2264 -0.5299 0.2264
v  -0.2080 -0.4124 0.4124
v  -0.4378 -0.4378 -0.0000
v  -0.2436 -0.5692 -0.0000
v  0.0000 -0.5692 0.2436
v  0.0000 -0.4378 0.4378
v  0.0000 -0.6192 -0.0000
v  -0.4124 -0.4124 -0.2080
v  -0.3575 -0.3575 -0.3575
v  -0.2080 -0.4124 -0.4124
v  -0.2264 -0.5299 -0.2264
v  0.0000 -0.4378 -0.4378
v  0.0000 -0.5692 -0.2436
v  0.3575 -0.3575 -0.3575
v  0.4124 -0.4124 -0.2080
v  0.2264 -0.5299 -0.2264
v  0.2080 -0.4124 -0.4124
v  0.4378 -0.4378 -0.0000
v  0.2436 -0.5692 -0.0000
v  0.4124 -0.4124 0.2080
v  0.3575 -0.3575 0.3575
v  0.2080 -0.4124 0.4124
v  0.2264 -0.5299 0.2264
v  -0.3575 0.3575 0.3575
v  -0.2080 0.4124 0.4124
v  -0.2264 0.5299 0.2264
v  -0.4124 0.4124 0.2080
v  0.0000 0.4378 0.4378
v  0.0000 0.5692 0.2436
v  -0.2436 0.5692 -0.0000
v  -0.4378 0.4378 -0.0000
v  0.0000 0.6192 -0.0000
v  0.2080 0.4124 0.4124
v  0.3575 0.3575 0.3575
v  0.4124 0.4124 0.2080
v  0.2264 0.5299 0.2264
v  0.4378 0.4378 -0.0000
v  0.2436 0.5692 -0.0000
v  0.3575 0.3575 -0.3575
v  0.2080 0.4124 -0.4124
v  0.2264 0.5299 -0.2264
v  0.4124 0.4124 -0.2080
v  0.0000 0.4378 -0.4378
v  0.0000 0.5692 -0.2436
v  -0.2080 0.4124 -0.4124
v  -0.3575 0.3575 -0.3575
v  -0.4124 0.4124 -0.2080
v  -0.2264 0.5299 -0.2264
v  -0.2264 -0.2264 0.5299
v  -0.4124 -0.2080 0.4124
v  0.0000 -0.2436 0.5692
v  -0.2436 0.0000 0.5692
v  -0.4378 0.0000 0.4378
v  0.0000 0.0000 0.6192
v  0.4124 -0.2080 0.4124
v  0.2264 -0.2264 0.5299
v  0.4378 0.0000 0.4378
v  0.2436 0.0000 0.5692
v  0.2264 0.2264 0.5299
v  0.4124 0.2080 0.4124
v  0.0000 0.2436 0.5692
v  -0.4124 0.2080 0.4124
v  -0.2264 0.2264 0.5299
v  0.5299 -0.2264 0.2264
v  0.5692 -0.2436 -0.0000
v  0.5692 0.0000 0.2436
v  0.6192 0.0000 -0.0000
v  0.4124 -0.2080 -0.4124
v  0.5299 -0.2264 -0.2264
v  0.4378 0.0000 -0.4378
v  0.5692 0.0000 -0.2436
v  0.5299 0.2264 -0.2264
v  0.4124 0.2080 -0.4124
v  0.5692 0.2436 -0.0000
v  0.5299 0.2264 0.2264
v  0.2264 -0.2264 -0.5299
v  0.0000 -0.2436 -0.5692
v  0.2436 0.0000 -0.5692
v  0.0000 0.0000 -0.6192
v  -0.4124 -0.2080 -0.4124
v  -0.2264 -0.2264 -0.5299
v  -0.4378 0.0000 -0.4378
v  -0.2436 0.0000 -0.5692
v  -0.2264 0.2264 -0.5299
v  -0.4124 0.2080 -0.4124
v  0.0000 0.2436 -0.5692
v  0.2264 0.2264 -0.5299
v  -0.5299 -0.2264 -0.2264
v  -0.5692 -0.2436 -0.0000
v  -0.5692 0.0000 -0.2436
v  -0.6192 0.0000 -0.0000
v  -0.5299 -0.2264 0.2264
v  -0.5692 0.0000 0.2436
v  -0.5299 0.2264 0.2264
v  -0.5692 0.2436 -0.0000
v  -0.5299 0.2264 -0.2264
# 98 vertices

vn -0.5941 -0.5688 0.5688
vn -0.6768 -0.6657 0.3144
vn -0.3528 -0.8667 0.3528
vn -0.3102 -0.6722 0.6722
vn -0.7071 -0.7071 -0.0000
vn -0.3848 -0.9230 -0.0038
vn 0.0038 -0.9230 0.3848
vn 0.0040 -0.7071 0.7071
vn 0.0000 -1.0000 -0.0000
vn -0.6657 -0.6768 -0.3144
vn -0.5603 -0.5857 -0.5857
vn -0.3186 -0.6702 -0.6702
vn -0.3556 -0.8644 -0.3556
vn -0.0040 -0.7071 -0.7071
vn -0.0038 -0.9230 -0.3848
vn 0.5941 -0.5688 -0.5688
vn 0.6768 -0.6657 -0.3144
vn 0.3528 -0.8667 -0.3528
vn 0.3102 -0.6722 -0.6722
vn 0.7071 -0.7071 -0.0000
vn 0.3848 -0.9230 0.0038
vn 0.6657 -0.6768 0.3144
vn 0.5603 -0.5857 0.5857
vn 0.3186 -0.6702 0.6702
vn 0.3556 -0.8644 0.3556
vn -0.5688 0.5688 0.5941
vn -0.3144 0.6657 0.6768
vn -0.3528 0.8667 0.3528
vn -0.6722 0.6722 0.3102
vn 0.0000 0.7071 0.7071
vn 0.0038 0.9230 0.3848
vn -0.3848 0.9230 -0.0038
vn -0.7071 0.7071 -0.0040
vn 0.0000 1.0000 -0.0000
vn 0.3144 0.6768 0.6657
vn 0.5857 0.5857 0.5603
vn 0.6702 0.6702 0.3186
vn 0.3556 0.8644 0.3556
vn 0.7071 0.7071 0.0040
vn 0.3848 0.9230 0.0038
vn 0.5688 0.5688 -0.5941
vn 0.3144 0.6657 -0.6768
vn 0.3528 0.8667 -0.3528
vn 0.6722 0.6722 -0.3102
vn 0.0000 0.7071 -0.7071
vn -0.0038 0.9230 -0.3848
vn -0.3144 0.6768 -0.6657
vn -0.5857 0.5857 -0.5603
vn -0.6702 0.6702 -0.3186
vn -0.3556 0.8644 -0.3556
vn -0.3528 -0.3528 0.8667
vn -0.6768 -0.3144 0.6657
vn 0.0038 -0.3848 0.9230
vn -0.3848 0.0038 0.9230
vn -0.7071 0.0000 0.7071
vn 0.0000 0.0000 1.0000
vn 0.6657 -0.3144 0.6768
vn 0.3556 -0.3556 0.8644
vn 0.7071 0.0000 0.7071
vn 0.3848 -0.0038 0.9230
vn 0.3528 0.3528 0.8667
vn 0.6768 0.3144 0.6657
vn -0.0038 0.3848 0.9230
vn -0.6657 0.3144 0.6768
vn -0.3556 0.3556 0.8644
vn 0.8667 -0.3528 0.3528
vn 0.9230 -0.3848 -0.0038
vn 0.9230 0.0038 0.3848
vn 1.0000 0.0000 -0.0000
vn 0.6768 -0.3144 -0.6657
vn 0.8644 -0.3556 -0.3556
vn 0.7071 0.0000 -0.7071
vn 0.9230 -0.0038 -0.3848
vn 0.8667 0.3528 -0.3528
vn 0.6657 0.3144 -0.6768
vn 0.9230 0.3848 0.0038
vn 0.8644 0.3556 0.3556
vn 0.3528 -0.3528 -0.8667
vn -0.0038 -0.3848 -0.9230
vn 0.3848 0.0038 -0.9230
vn 0.0000 0.0000 -1.0000
vn -0.6657 -0.3144 -0.6768
vn -0.3556 -0.3556 -0.8644
vn -0.7071 0.0000 -0.7071
vn -0.3848 -0.0038 -0.9230
vn -0.3528 0.3528 -0.8667
vn -0.6768 0.3144 -0.6657
vn 0.0038 0.3848 -0.9230
vn 0.3556 0.3556 -0.8644
vn -0.8667 -0.3528 -0.3528
vn -0.9230 -0.3848 0.0038
vn -0.9230 0.0038 -0.3848
vn -1.0000 0.0000 -0.0000
vn -0.8644 -0.3556 0.3556
vn -0.9230 -0.0038 0.3848
vn -0.8667 0.3528 0.3528
vn -0.9230 0.3848 -0.0038
vn -0.8644 0.3556 -0.3556
# 98 vertex normals

vt 0.6250 0.3041 0.7526
vt 0.5743 0.2680 0.7160
vt 0.6250 0.1730 0.7769
vt 0.6757 0.2680 0.7995
vt 0.5000 0.2500 0.6614
vt 0.5000 0.1287 0.6912
vt 0.7500 0.1287 0.8890
vt 0.7500 0.2500 0.8660
vt 0.0000 0.0000 0.5000
vt 1.0000 0.0000 0.5000
vt 0.4257 0.2680 0.6032
vt 0.3750 0.3041 0.5625
vt 0.3243 0.2680 0.5366
vt 0.3750 0.1730 0.5947
vt 0.2500 0.2500 0.5000
vt 0.2500 0.1287 0.5388
vt 0.1250 0.3041 0.4375
vt 0.0743 0.2680 0.4339
vt 0.1250 0.1730 0.4782
vt 0.1757 0.2680 0.4621
vt 0.0000 0.2500 0.4330
vt 0.0000 0.1287 0.4773
vt 0.9257 0.2680 1.0196
vt 0.8750 0.3041 0.9703
vt 0.8243 0.2680 0.9286
vt 0.8750 0.1730 0.9893
vt 1.0000 0.2500 0.4330
vt 1.0000 0.1287 0.4773
vt 0.6250 0.6959 0.9789
vt 0.6757 0.7320 1.0503
vt 0.6250 0.8270 1.1214
vt 0.5743 0.7320 0.9882
vt 0.7500 0.7500 1.1180
vt 0.7500 0.8713 1.2381
vt 0.5000 0.8713 1.1047
vt 0.5000 0.7500 0.9682
vt 1.0000 1.0000 1.1180
vt 0.0000 1.0000 1.1180
vt 0.8243 0.7320 1.1516
vt 0.8750 0.6959 1.1547
vt 0.9257 0.7320 1.2262
vt 0.8750 0.8270 1.2777
vt 1.0000 0.7500 0.8291
vt 1.0000 0.8713 0.9851
vt 0.1250 0.6959 0.7637
vt 0.1757 0.7320 0.8232
vt 0.1250 0.8270 0.9395
vt 0.0743 0.7320 0.8076
vt 0.2500 0.7500 0.8660
vt 0.2500 0.8713 1.0163
vt 0.0000 0.8713 0.9851
vt 0.0000 0.7500 0.8291
vt 0.3243 0.7320 0.8671
vt 0.3750 0.6959 0.8416
vt 0.4257 0.7320 0.9099
vt 0.3750 0.8270 1.0038
vt 0.6857 0.3808 0.8054
vt 0.6250 0.3910 0.7561
vt 0.7500 0.3713 0.8597
vt 0.6856 0.5000 0.8486
vt 0.6250 0.5000 0.8004
vt 0.7500 0.5000 0.9014
vt 0.8750 0.3910 0.9730
vt 0.8143 0.3808 0.9173
vt 0.8750 0.5000 1.0078
vt 0.8144 0.5000 0.9556
vt 0.8143 0.6192 1.0391
vt 0.8750 0.6090 1.0792
vt 0.7500 0.6287 0.9982
vt 0.6250 0.6090 0.8887
vt 0.6857 0.6192 0.9418
vt 0.9357 0.3808 1.0267
vt 1.0000 0.3713 0.4202
vt 0.9356 0.5000 1.0609
vt 1.0000 0.5000 0.5000
vt 0.1250 0.3910 0.4435
vt 0.0643 0.3808 0.4273
vt 0.1250 0.5000 0.5154
vt 0.0644 0.5000 0.5041
vt 0.0000 0.3713 0.4202
vt 0.0000 0.5000 0.5000
vt 0.0643 0.6192 0.6488
vt 0.1250 0.6090 0.6440
vt 0.0000 0.6287 0.6588
vt 0.9357 0.6192 1.1368
vt 1.0000 0.6287 0.6588
vt 0.1857 0.3808 0.4615
vt 0.2500 0.3713 0.4889
vt 0.1856 0.5000 0.5334
vt 0.2500 0.5000 0.5590
vt 0.3750 0.3910 0.5672
vt 0.3143 0.3808 0.5265
vt 0.3750 0.5000 0.6250
vt 0.3144 0.5000 0.5906
vt 0.3143 0.6192 0.7180
vt 0.3750 0.6090 0.7347
vt 0.2500 0.6287 0.7046
vt 0.1857 0.6192 0.6718
vt 0.4357 0.3808 0.6069
vt 0.5000 0.3713 0.6531
vt 0.4356 0.5000 0.6632
vt 0.5000 0.5000 0.7071
vt 0.5643 0.3808 0.7049
vt 0.5644 0.5000 0.7540
vt 0.5643 0.6192 0.8574
vt 0.5000 0.6287 0.8270
vt 0.4357 0.6192 0.7789
# 107 texture coords

g low_poly_sphere
f 1/1/1 2/2/2 3/3/3 
f 3/3/3 4/4/4 1/1/1 
f 2/2/2 5/5/5 6/6/6 
f 6/6/6 3/3/3 2/2/2 
f 4/4/4 3/3/3 7/7/7 
f 7/7/7 8/8/8 4/4/4 
f 3/3/3 6/6/6 9/9/9 
f 9/10/9 7/7/7 3/3/3 
f 10/11/10 11/12/11 12/13/12 
f 12/13/12 13/14/13 10/11/10 
f 13/14/13 12/13/12 14/15/14 
f 14/15/14 15/16/15 13/14/13 
f 5/5/5 10/11/10 13/14/13 
f 13/14/13 6/6/6 5/5/5 
f 6/6/6 13/14/13 15/16/15 
f 15/16/15 9/9/9 6/6/6 
f 16/17/16 17/18/17 18/19/18 
f 18/19/18 19/20/19 16/17/16 
f 17/18/17 20/21/20 21/22/21 
f 21/22/21 18/19/18 17/18/17 
f 19/20/19 18/19/18 15/16/15 
f 15/16/15 14/15/14 19/20/19 
f 18/19/18 21/22/21 9/9/9 
f 9/9/9 15/16/15 18/19/18 
f 22/23/22 23/24/23 24/25/24 
f 24/25/24 25/26/25 22/23/22 
f 25/26/25 24/25/24 8/8/8 
f 8/8/8 7/7/7 25/26/25 
f 20/27/20 22/23/22 25/26/25 
f 25/26/25 21/28/21 20/27/20 
f 21/28/21 25/26/25 7/7/7 
f 7/7/7 9/10/9 21/28/21 
f 26/29/26 27/30/27 28/31/28 
f 28/31/28 29/32/29 26/29/26 
f 27/30/27 30/33/30 31/34/31 
f 31/34/31 28/31/28 27/30/27 
f 29/32/29 28/31/28 32/35/32 
f 32/35/32 33/36/33 29/32/29 
f 28/31/28 31/34/31 34/37/34 
f 34/38/34 32/35/32 28/31/28 
f 35/39/35 36/40/36 37/41/37 
f 37/41/37 38/42/38 35/39/35 
f 38/42/38 37/41/37 39/43/39 
f 39/43/39 40/44/40 38/42/38 
f 30/33/30 35/39/35 38/42/38 
f 38/42/38 31/34/31 30/33/30 
f 31/34/31 38/42/38 40/44/40 
f 40/44/40 34/37/34 31/34/31 
f 41/45/41 42/46/42 43/47/43 
f 43/47/43 44/48/44 41/45/41 
f 42/46/42 45/49/45 46/50/46 
f 46/50/46 43/47/43 42/46/42 
f 44/48/44 43/47/43 40/51/40 
f 40/51/40 39/52/39 44/48/44 
f 43/47/43 46/50/46 34/38/34 
f 34/38/34 40/51/40 43/47/43 
f 47/53/47 48/54/48 49/55/49 
f 49/55/49 50/56/50 47/53/47 
f 50/56/50 49/55/49 33/36/33 
f 33/36/33 32/35/32 50/56/50 
f 45/49/45 47/53/47 50/56/50 
f 50/56/50 46/50/46 45/49/45 
f 46/50/46 50/56/50 32/35/32 
f 32/35/32 34/38/34 46/50/46 
f 1/1/1 4/4/4 51/57/51 
f 51/57/51 52/58/52 1/1/1 
f 4/4/4 8/8/8 53/59/53 
f 53/59/53 51/57/51 4/4/4 
f 52/58/52 51/57/51 54/60/54 
f 54/60/54 55/61/55 52/58/52 
f 51/57/51 53/59/53 56/62/56 
f 56/62/56 54/60/54 51/57/51 
f 24/25/24 23/24/23 57/63/57 
f 57/63/57 58/64/58 24/25/24 
f 58/64/58 57/63/57 59/65/59 
f 59/65/59 60/66/60 58/64/58 
f 8/8/8 24/25/24 58/64/58 
f 58/64/58 53/59/53 8/8/8 
f 53/59/53 58/64/58 60/66/60 
f 60/66/60 56/62/56 53/59/53 
f 36/40/36 35/39/35 61/67/61 
f 61/67/61 62/68/62 36/40/36 
f 35/39/35 30/33/30 63/69/63 
f 63/69/63 61/67/61 35/39/35 
f 62/68/62 61/67/61 60/66/60 
f 60/66/60 59/65/59 62/68/62 
f 61/67/61 63/69/63 56/62/56 
f 56/62/56 60/66/60 61/67/61 
f 27/30/27 26/29/26 64/70/64 
f 64/70/64 65/71/65 27/30/27 
f 65/71/65 64/70/64 55/61/55 
f 55/61/55 54/60/54 65/71/65 
f 30/33/30 27/30/27 65/71/65 
f 65/71/65 63/69/63 30/33/30 
f 63/69/63 65/71/65 54/60/54 
f 54/60/54 56/62/56 63/69/63 
f 23/24/23 22/23/22 66/72/66 
f 66/72/66 57/63/57 23/24/23 
f 22/23/22 20/27/20 67/73/67 
f 67/73/67 66/72/66 22/23/22 
f 57/63/57 66/72/66 68/74/68 
f 68/74/68 59/65/59 57/63/57 
f 66/72/66 67/73/67 69/75/69 
f 69/75/69 68/74/68 66/72/66 
f 17/18/17 16/17/16 70/76/70 
f 70/76/70 71/77/71 17/18/17 
f 71/77/71 70/76/70 72/78/72 
f 72/78/72 73/79/73 71/77/71 
f 20/21/20 17/18/17 71/77/71 
f 71/77/71 67/80/67 20/21/20 
f 67/80/67 71/77/71 73/79/73 
f 73/79/73 69/81/69 67/80/67 
f 41/45/41 44/48/44 74/82/74 
f 74/82/74 75/83/75 41/45/41 
f 44/48/44 39/52/39 76/84/76 
f 76/84/76 74/82/74 44/48/44 
f 75/83/75 74/82/74 73/79/73 
f 73/79/73 72/78/72 75/83/75 
f 74/82/74 76/84/76 69/81/69 
f 69/81/69 73/79/73 74/82/74 
f 37/41/37 36/40/36 62/68/62 
f 62/68/62 77/85/77 37/41/37 
f 77/85/77 62/68/62 59/65/59 
f 59/65/59 68/74/68 77/85/77 
f 39/43/39 37/41/37 77/85/77 
f 77/85/77 76/86/76 39/43/39 
f 76/86/76 77/85/77 68/74/68 
f 68/74/68 69/75/69 76/86/76 
f 16/17/16 19/20/19 78/87/78 
f 78/87/78 70/76/70 16/17/16 
f 19/20/19 14/15/14 79/88/79 
f 79/88/79 78/87/78 19/20/19 
f 70/76/70 78/87/78 80/89/80 
f 80/89/80 72/78/72 70/76/70 
f 78/87/78 79/88/79 81/90/81 
f 81/90/81 80/89/80 78/87/78 
f 12/13/12 11/12/11 82/91/82 
f 82/91/82 83/92/83 12/13/12 
f 83/92/83 82/91/82 84/93/84 
f 84/93/84 85/94/85 83/92/83 
f 14/15/14 12/13/12 83/92/83 
f 83/92/83 79/88/79 14/15/14 
f 79/88/79 83/92/83 85/94/85 
f 85/94/85 81/90/81 79/88/79 
f 48/54/48 47/53/47 86/95/86 
f 86/95/86 87/96/87 48/54/48 
f 47/53/47 45/49/45 88/97/88 
f 88/97/88 86/95/86 47/53/47 
f 87/96/87 86/95/86 85/94/85 
f 85/94/85 84/93/84 87/96/87 
f 86/95/86 88/97/88 81/90/81 
f 81/90/81 85/94/85 86/95/86 
f 42/46/42 41/45/41 75/83/75 
f 75/83/75 89/98/89 42/46/42 
f 89/98/89 75/83/75 72/78/72 
f 72/78/72 80/89/80 89/98/89 
f 45/49/45 42/46/42 89/98/89 
f 89/98/89 88/97/88 45/49/45 
f 88/97/88 89/98/89 80/89/80 
f 80/89/80 81/90/81 88/97/88 
f 11/12/11 10/11/10 90/99/90 
f 90/99/90 82/91/82 11/12/11 
f 10/11/10 5/5/5 91/100/91 
f 91/100/91 90/99/90 10/11/10 
f 82/91/82 90/99/90 92/101/92 
f 92/101/92 84/93/84 82/91/82 
f 90/99/90 91/100/91 93/102/93 
f 93/102/93 92/101/92 90/99/90 
f 2/2/2 1/1/1 52/58/52 
f 52/58/52 94/103/94 2/2/2 
f 94/103/94 52/58/52 55/61/55 
f 55/61/55 95/104/95 94/103/94 
f 5/5/5 2/2/2 94/103/94 
f 94/103/94 91/100/91 5/5/5 
f 91/100/91 94/103/94 95/104/95 
f 95/104/95 93/102/93 91/100/91 
f 26/29/26 29/32/29 96/105/96 
f 96/105/96 64/70/64 26/29/26 
f 29/32/29 33/36/33 97/106/97 
f 97/106/97 96/105/96 29/32/29 
f 64/70/64 96/105/96 95/104/95 
f 95/104/95 55/61/55 64/70/64 
f 96/105/96 97/106/97 93/102/93 
f 93/102/93 95/104/95 96/105/96 
f 49/55/49 48/54/48 87/96/87 
f 87/96/87 98/107/98 49/55/49 
f 98/107/98 87/96/87 84/93/84 
f 84/93/84 92/101/92 98/107/98 
f 33/36/33 49/55/49 98/107/98 
f 98/107/98 97/106/97 33/36/33 
f 97/106/97 98/107/98 92/101/92 
f 92/101/92 93/102/93 97/106/97 
# 192 faces

